<?xml version="1.0" encoding="UTF-8" standalone="no"?>
<!-- Created with Inkscape (http://www.inkscape.org/) -->

<svg
   xmlns:dc="http://purl.org/dc/elements/1.1/"
   xmlns:cc="http://creativecommons.org/ns#"
   xmlns:rdf="http://www.w3.org/1999/02/22-rdf-syntax-ns#"
   xmlns:svg="http://www.w3.org/2000/svg"
   xmlns="http://www.w3.org/2000/svg"
   xmlns:sodipodi="http://sodipodi.sourceforge.net/DTD/sodipodi-0.dtd"
   xmlns:inkscape="http://www.inkscape.org/namespaces/inkscape"
   version="1.1"
   id="svg80"
   width="682.66669"
   height="682.66669"
   viewBox="0 0 682.66669 682.66669"
   sodipodi:docname="logo3.svg"
   inkscape:version="0.92.4 (unknown)">
  <metadata
     id="metadata86">
    <rdf:RDF>
      <cc:Work
         rdf:about="">
        <dc:format>image/svg+xml</dc:format>
        <dc:type
           rdf:resource="http://purl.org/dc/dcmitype/StillImage" />
        <dc:title></dc:title>
      </cc:Work>
    </rdf:RDF>
  </metadata>
  <defs
     id="defs84" />
  <sodipodi:namedview
     pagecolor="#ffffff"
     bordercolor="#666666"
     borderopacity="1"
     objecttolerance="10"
     gridtolerance="10"
     guidetolerance="10"
     inkscape:pageopacity="0"
     inkscape:pageshadow="2"
     inkscape:window-width="1366"
     inkscape:window-height="719"
     id="namedview82"
     showgrid="false"
     inkscape:zoom="0.5"
     inkscape:cx="60.264557"
     inkscape:cy="391.40387"
     inkscape:window-x="0"
     inkscape:window-y="25"
     inkscape:window-maximized="1"
     inkscape:current-layer="svg80"
     inkscape:snap-text-baseline="true"
     inkscape:snap-bbox="true" />
  <path
     style="fill:#ffffff;stroke-width:1.27363193"
     d="m 74.144462,463.53832 c 1.385657,-2.27661 7.252803,-12.44975 13.038102,-22.60696 5.785298,-10.15722 12.661456,-21.90647 15.280346,-26.10946 2.6189,-4.20298 9.3349,-15.66567 14.92445,-25.47263 5.58955,-9.80697 12.73458,-22.12936 15.87785,-27.38309 8.15259,-13.62643 27.59176,-46.99811 40.7832,-70.01349 6.21176,-10.83778 11.77116,-20.2945 12.35423,-21.01493 0.58307,-0.72044 7.34658,-12.19944 15.03002,-25.5089 27.44554,-47.54186 40.61027,-70.12589 43.80329,-75.14428 1.7828,-2.80199 7.43168,-12.54527 12.55306,-21.65174 5.12138,-9.10647 10.30045,-17.99005 11.50904,-19.74129 1.2086,-1.75125 8.65862,-14.3602 16.55561,-28.01991 31.2854,-54.115501 41.92424,-72.394951 47.98981,-82.455166 l 6.32771,-10.4949704 9.56132,16.2263134 c 27.8352,47.238475 28.1115,47.781295 26.08798,51.25119 -1.02127,1.751244 -7.00412,12.354229 -13.29524,23.56219 -6.29112,11.207963 -14.00799,24.676613 -17.14861,29.930353 -3.14063,5.25373 -10.60257,18.14925 -16.5821,28.65671 -5.97953,10.50747 -14.15522,24.83583 -18.16822,31.8408 -4.01299,7.00498 -13.96231,24.37812 -22.10959,38.60697 -8.14727,14.22886 -18.9004,32.85573 -23.89584,41.39303 -4.99544,8.53732 -13.95301,24.11941 -19.9057,34.62687 -13.18661,23.27648 -29.2474,51.31449 -43.04432,75.14428 -24.93622,43.06942 -39.31862,68.23678 -44.57966,78.00869 l -5.65637,10.50622 -39.90487,0.001 -39.904876,10e-4 z"
     id="path138"
     inkscape:connector-curvature="0" />
  <path
     style="fill:#ffffff;stroke-width:1.27363193"
     d="m 98.661454,619.55823 c 1.584666,-2.62687 9.008686,-15.37911 16.497806,-28.33831 7.48912,-12.95921 20.65703,-35.59801 29.26203,-50.30846 25.21777,-43.11036 40.89655,-70.06806 52.22311,-89.79105 5.83311,-10.15721 13.58239,-23.3393 17.22062,-29.29353 3.63824,-5.95423 10.7955,-18.27662 15.90504,-27.38309 5.10951,-9.10647 10.35362,-18.11438 11.65355,-20.01758 2.16398,-3.16824 10.10682,-16.78544 42.18424,-72.32073 6.27147,-10.85771 15.52872,-26.6189 20.57166,-35.02488 5.04295,-8.40597 11.66488,-19.86865 14.71541,-25.47263 3.05051,-5.60398 7.06789,-12.4816 8.92751,-15.28359 1.85961,-2.80199 8.44135,-13.97811 14.62609,-24.83582 6.18473,-10.85771 15.02634,-26.14304 19.64799,-33.96741 4.62165,-7.82436 14.66536,-24.87511 22.31934,-37.89055 7.65399,-13.01543 14.30686,-23.66443 14.78416,-23.66443 1.09802,0 6.94711,9.55297 20.66517,33.75125 5.95671,10.50746 17.95075,31.42686 26.65341,46.48756 8.70266,15.0607 19.74487,34.2607 24.53824,42.66667 4.79336,8.40597 12.26921,21.30149 16.61298,28.65672 4.34378,7.35522 12.08407,20.82388 17.20066,29.93035 5.1166,9.10646 10.7496,18.84975 12.51781,21.65174 1.7682,2.80199 8.76488,14.83781 15.54817,26.74627 17.52131,30.75968 30.40043,53.14511 43.23309,75.14428 6.12927,10.50746 13.33492,23.11642 16.01257,28.0199 2.67763,4.90348 7.62972,13.35721 11.00464,18.78607 l 6.1362,9.87065 h -46.46693 -46.46693 l -1.73274,-2.86568 c -2.25512,-3.72961 -13.53158,-24.0276 -28.83311,-51.90049 -6.72972,-12.25871 -14.2925,-25.72737 -16.80616,-29.93035 -2.51367,-4.20299 -9.74055,-17.09851 -16.05972,-28.65672 -15.55835,-28.45727 -22.41178,-40.79402 -39.27489,-70.69812 -7.90388,-14.01631 -14.75357,-26.48198 -15.22154,-27.7015 -1.41079,-3.67646 -2.68995,-2.60958 -7.64909,6.37972 -2.6085,4.72835 -9.44971,16.62089 -15.20268,26.42786 -5.75298,9.80696 -13.87453,23.84875 -18.04787,31.20398 -13.38298,23.58653 -28.53196,49.82412 -39.34203,68.1393 -5.78832,9.80697 -14.16037,24.24659 -18.60457,32.08805 -4.4442,7.84145 -15.31679,26.75488 -24.16132,42.02985 -8.84453,15.27496 -19.37042,33.504 -23.39086,40.50897 -4.02043,7.00498 -12.34026,21.33334 -18.48849,31.8408 -6.14824,10.50746 -14.05338,24.31269 -17.56699,30.67828 -3.5136,6.36558 -8.33744,14.67603 -10.71963,18.46766 -2.38219,3.79163 -8.59594,14.48589 -13.80833,23.76505 l -9.47707,16.87119 -43.11088,0.004 -43.110884,0.004 z"
     id="path140"
     inkscape:connector-curvature="0" />
  <path
     style="fill:#ffffff;stroke-width:1.27363193"
     d="m 320.55996,470.5433 c 0.28559,-0.52538 5.12299,-8.69254 10.7498,-18.14926 17.86487,-30.02466 39.24487,-66.47619 45.94211,-78.32836 10.23628,-18.11522 8.77226,-17.80698 16.68719,-3.51339 3.78528,6.83585 9.56715,17.01389 12.8486,22.61787 3.28145,5.60398 10.87161,19.07264 16.86704,29.93035 5.99542,10.85771 14.39863,25.95571 18.67379,33.55111 4.27516,7.5954 7.77302,14.04316 7.77302,14.32836 0,0.2852 -29.26368,0.51854 -65.0304,0.51854 -35.76671,0 -64.79673,-0.42985 -64.51115,-0.95522 z"
     id="path142"
     inkscape:connector-curvature="0" />
  <text
     xml:space="preserve"
     style="font-style:normal;font-variant:normal;font-weight:bold;font-stretch:normal;font-size:86.77476501px;line-height:1.25;font-family:Uroob;-inkscape-font-specification:'Uroob, Bold';font-variant-ligatures:normal;font-variant-caps:normal;font-variant-numeric:normal;font-feature-settings:normal;text-align:start;letter-spacing:0px;word-spacing:0px;writing-mode:lr-tb;text-anchor:start;fill:#ffffff;fill-opacity:1;stroke:none;stroke-width:2.16934872;"
     x="214.36589"
     y="655.82812"
     id="text241"
     transform="scale(1.2159331,0.82241365)"><tspan
       sodipodi:role="line"
       id="tspan239"
       x="214.36589"
       y="655.82812"
       style="font-style:normal;font-variant:normal;font-weight:bold;font-stretch:normal;font-size:86.77476501px;font-family:Uroob;-inkscape-font-specification:'Uroob, Bold';font-variant-ligatures:normal;font-variant-caps:normal;font-variant-numeric:normal;font-feature-settings:normal;text-align:start;writing-mode:lr-tb;text-anchor:start;stroke-width:2.16934872;fill:#ffffff;">Alpha POS</tspan></text>
  <flowRoot
     xml:space="preserve"
     id="flowRoot243"
     style="fill:black;fill-opacity:1;stroke:none;font-family:sans-serif;font-style:normal;font-weight:normal;font-size:40px;line-height:1.25;letter-spacing:0px;word-spacing:0px"><flowRegion
       id="flowRegion245"><rect
         id="rect247"
         width="33.114441"
         height="40.756233"
         x="258.54727"
         y="532.37811" /></flowRegion><flowPara
       id="flowPara249"></flowPara></flowRoot>  <flowRoot
     xml:space="preserve"
     id="flowRoot251"
     style="fill:black;fill-opacity:1;stroke:none;font-family:sans-serif;font-style:normal;font-weight:normal;font-size:40px;line-height:1.25;letter-spacing:0px;word-spacing:0px"><flowRegion
       id="flowRegion253"><rect
         id="rect255"
         width="278.92538"
         height="49.671627"
         x="292.93533"
         y="494.16916" /></flowRegion><flowPara
       id="flowPara257"></flowPara></flowRoot>  <path
     style="fill:#000000;fill-opacity:0"
     id="path267"
     d="m 304.93414,535.15706 c 5.99432,-1.78443 11.88234,-3.83155 17.66824,-6.21111 6.30017,-2.99913 12.90556,-5.02527 19.64965,-6.70065 5.40041,-1.11567 10.83311,-2.08429 16.24934,-3.13325 6.18212,-0.82958 12.22968,-2.22644 18.29059,-3.65999 3.71325,-0.8054 7.49204,-1.19238 11.28518,-1.28563 3.49555,-0.0486 6.99203,-0.021 10.48778,10e-4 4.69772,0.1362 9.4083,-0.11874 14.09379,0.26078 0.77199,0.1417 1.54397,0.2834 2.31595,0.42511 0,0 -15.09851,10.60431 -15.09851,10.60431 v 0 c -0.72751,-0.10063 -1.45502,-0.20127 -2.18254,-0.3019 -4.71426,-0.21813 -9.43324,-0.079 -14.15107,-0.0795 -3.50053,0.005 -7.00238,-0.0232 -10.50127,0.10608 -3.65811,0.20357 -7.30795,0.57003 -10.88239,1.41295 -6.01194,1.33184 -12.05034,2.4624 -18.12547,3.46741 -5.44956,1.10765 -10.91701,2.13212 -16.34986,3.31586 -6.58448,1.61879 -12.96258,3.81612 -19.14141,6.63309 -6.09281,2.42981 -12.32415,4.45144 -18.44034,6.80854 0,0 14.83234,-11.66358 14.83234,-11.66358 z"
     inkscape:connector-curvature="0" />
  <path
     style="fill:#000000;fill-opacity:0"
     id="path269"
     d="m 399.59495,509.95668 c 2.89909,2.75983 5.90052,5.40416 8.98668,7.95181 3.29667,2.73534 6.56462,5.4955 9.65086,8.46656 1.80225,1.93354 3.3644,4.06447 5.08493,6.07239 0,0 -15.92406,9.57223 -15.92406,9.57223 v 0 c -1.63987,-1.97986 -3.14024,-4.07393 -4.8955,-5.95468 -3.07045,-2.91994 -6.35612,-5.59815 -9.56643,-8.36181 -3.09017,-2.56108 -6.02598,-5.32246 -9.29763,-7.65121 0,0 15.96115,-10.09529 15.96115,-10.09529 z"
     inkscape:connector-curvature="0" />
  <path
     style="fill:#000000;fill-opacity:0"
     id="path271"
     d="m 369.01546,497.60119 c 3.38285,4.12259 7.70293,7.3216 11.9218,10.5263 6.49695,5.02172 12.74245,10.35522 19.20649,15.41822 4.54876,3.58956 8.66129,7.6816 12.34029,12.15119 0.4803,0.59853 0.96061,1.19706 1.44092,1.79559 0,0 -15.83971,9.45772 -15.83971,9.45772 v 0 c -0.46619,-0.59524 -0.93239,-1.19049 -1.39859,-1.78573 -3.56286,-4.36326 -7.41837,-8.48236 -11.81729,-12.02246 -6.34822,-5.16596 -12.49955,-10.58574 -19.13215,-15.39158 -4.49753,-3.27281 -9.0422,-6.54079 -12.96295,-10.51092 0,0 16.24119,-9.63833 16.24119,-9.63833 z"
     inkscape:connector-curvature="0" />
  <path
     style="fill:#000000;fill-opacity:0"
     id="path273"
     d="m 210.90812,417.87966 c 3.15286,3.53074 7.15175,6.23075 10.96899,8.99239 5.11143,3.56432 9.89139,7.53349 14.60696,11.59568 3.63921,3.11583 7.32535,6.19519 11.34436,8.811 3.86102,2.13201 7.59048,4.44907 11.24335,6.91766 4.41924,2.93305 9.18708,5.26702 13.78647,7.89907 5.30495,3.56936 11.51733,4.66239 17.62855,6.03195 6.6521,1.18191 13.23631,2.63046 19.79241,4.2507 4.08968,1.2492 8.38474,1.29091 12.56005,2.00484 4.0319,0.77059 8.13815,0.93511 12.22942,1.08522 7.14709,0.18648 14.29734,0.21373 21.4465,0.23015 7.69933,0.006 15.39868,-0.004 23.09758,-0.0893 4.40643,-0.0311 8.81246,-0.099 13.21881,-0.13822 1.38602,-0.11886 2.80554,0.11224 4.18942,-0.0217 1.20877,-0.11698 1.21727,-0.23753 2.25074,-0.76232 -5.07433,2.84069 -10.14867,5.68139 -15.22301,8.52209 2.84651,-2.79701 2.08649,-7.30307 1.47067,-10.84483 -1.25287,-4.7257 -4.4206,-8.27746 -7.96594,-11.4653 -2.22603,-1.85657 -1.10028,-0.99818 -3.36738,-2.58808 0,0 15.63316,-9.90716 15.63316,-9.90716 v 0 c 2.28875,1.76417 1.14832,0.83587 3.41584,2.79157 3.76706,3.5162 7.02625,7.47547 8.47266,12.5259 0.88781,4.16536 1.53623,8.44719 -0.24177,12.48627 -14.8747,8.72035 -12.59264,10.51394 -23.72317,10.22633 -4.28153,-0.0386 -8.56277,-0.10558 -12.84441,-0.13307 -7.62607,-0.0806 -15.25253,-0.0795 -22.87896,-0.071 -7.27495,0.0127 -14.55065,0.0825 -21.82515,-0.0257 -4.20801,-0.11104 -8.41735,-0.31184 -12.56061,-1.11826 -4.17344,-0.5463 -8.35186,-1.11097 -12.3919,-2.34912 -6.46659,-1.72336 -13.02169,-3.03733 -19.59056,-4.30961 -6.33657,-1.34454 -12.62219,-2.66838 -18.0834,-6.38376 -4.69027,-2.62983 -9.58771,-4.89168 -14.06477,-7.88617 -3.6677,-2.45066 -7.41769,-4.73573 -11.2617,-6.89983 -3.99195,-2.73299 -7.61747,-5.96841 -11.26837,-9.13298 -4.63994,-4.05868 -9.3658,-8.00661 -14.46365,-11.48898 -3.98615,-2.85067 -8.05645,-5.61924 -11.73223,-8.87029 0,0 16.13104,-9.88511 16.13104,-9.88511 z"
     inkscape:connector-curvature="0" />
  <rect
     style="fill:#000000;fill-opacity:0"
     id="rect275"
     width="105.14992"
     height="50.233776"
     x="292.93533"
     y="496.71643" />
  <rect
     style="fill:#000000;fill-opacity:0"
     id="rect277"
     width="6.3681593"
     height="15.283569"
     x="296.75623"
     y="517.09454" />
  <rect
     style="fill:#000000;fill-opacity:0"
     id="rect279"
     width="232.90578"
     height="86.059448"
     x="290.38806"
     y="483.9801" />
  <rect
     style="fill:#000000;fill-opacity:0"
     id="rect281"
     width="14.04881"
     height="12.03486"
     x="399.87616"
     y="525.45764" />
  <rect
     style="fill:#000000;fill-opacity:0"
     id="rect283"
     width="1.2662473"
     height="11.029431"
     x="412.65872"
     y="514.42822" />
  <rect
     style="fill:#000000;fill-opacity:0"
     id="rect285"
     width="35.667095"
     height="23.477699"
     x="413.92496"
     y="525.45764" />
  <rect
     style="fill:#000000;fill-opacity:0"
     id="rect287"
     width="34.388069"
     height="33.666752"
     x="449.59204"
     y="525.45764" />
  <rect
     style="fill:#000000;fill-opacity:0"
     id="rect289"
     width="1.2736411"
     height="50.223969"
     x="483.9801"
     y="525.45764" />
  <rect
     style="fill:#000000;fill-opacity:0"
     id="rect291"
     width="25.000999"
     height="20.447424"
     x="423.31741"
     y="512" />
  <rect
     style="fill:#000000;fill-opacity:0"
     id="rect293"
     width="28.968075"
     height="22.421432"
     x="370.62686"
     y="509.95667" />
  <rect
     style="fill:#000000;fill-opacity:0"
     id="rect295"
     width="67.50248"
     height="48.398026"
     x="303.12439"
     y="532.37811" />
  <rect
     style="fill:#000000;fill-opacity:0"
     id="rect297"
     width="89.154236"
     height="14.079273"
     x="359.16418"
     y="518.36816" />
  <rect
     style="fill:#000000;fill-opacity:0"
     id="rect302"
     width="24.469616"
     height="1.6838059"
     x="359.16418"
     y="518.36816" />
  <flowRoot
     xml:space="preserve"
     id="flowRoot304"
     style="fill:black;fill-opacity:1;stroke:none;font-family:sans-serif;font-style:normal;font-weight:normal;font-size:40px;line-height:1.25;letter-spacing:0px;word-spacing:0px"><flowRegion
       id="flowRegion306"><rect
         id="rect308"
         width="229.25374"
         height="45.85075"
         x="292.93533"
         y="496.71643" /></flowRegion><flowPara
       id="flowPara310"></flowPara></flowRoot>  <flowRoot
     xml:space="preserve"
     id="flowRoot312"
     style="fill:black;fill-opacity:1;stroke:none;font-family:sans-serif;font-style:normal;font-weight:normal;font-size:40px;line-height:1.25;letter-spacing:0px;word-spacing:0px"><flowRegion
       id="flowRegion314"><rect
         id="rect316"
         width="219.06468"
         height="52.21891"
         x="292.93533"
         y="496.71643" /></flowRegion><flowPara
       id="flowPara318"></flowPara></flowRoot>  <path
     sodipodi:type="star"
     style="fill:#000000;fill-opacity:0"
     id="path320"
     sodipodi:sides="5"
     sodipodi:cx="312.03979"
     sodipodi:cy="505.63187"
     sodipodi:r1="184.08276"
     sodipodi:r2="38.0867"
     sodipodi:arg1="0.14581081"
     sodipodi:arg2="0.77412934"
     inkscape:flatsided="false"
     inkscape:rounded="0"
     inkscape:randomized="0"
     d="M 494.16915,532.37811 339.27293,532.25804 342.88367,687.11222 295.1323,539.76006 148.973,591.04665 274.35725,500.09807 180.4151,376.94075 305.6582,468.0836 393.75805,340.6816 345.77829,487.95956 Z"
     inkscape:transform-center-x="1.0497503"
     inkscape:transform-center-y="6.2683041" />
  <path
     sodipodi:type="star"
     style="fill:#000000;fill-opacity:0"
     id="path322"
     sodipodi:sides="5"
     sodipodi:cx="494.16916"
     sodipodi:cy="532.37811"
     sodipodi:r1="97.182625"
     sodipodi:r2="20.107084"
     sodipodi:arg1="2.9910795"
     sodipodi:arg2="3.619398"
     inkscape:flatsided="false"
     inkscape:rounded="0"
     inkscape:randomized="0"
     d="m 398.08526,546.95021 78.22868,-23.81797 -25.69523,-77.63232 46.82623,67.03974 65.89247,-48.42732 -49.28849,65.25081 66.41901,47.70259 -77.28818,-26.71253 -24.84326,77.90915 1.52176,-81.76006 z"
     inkscape:transform-center-x="4.8925643"
     inkscape:transform-center-y="4.5030255" />
</svg>
